# xmcd CD database file
#
# Track frame offsets:
#	150
#	17908
#	37930
#	61855
#	82767
#	99827
#	124263
#	142115
#	160251
#	184390
#	213969
#	237645
#	259965
#
# Disc length: 3619 seconds
#
# Revision: 5
# Processed by: cddbd v1.5.2PL0 Copyright (c) Steve Scherf et al.
# Submitted via: CDex 1.51
#
DISCID=b10e210d
DTITLE=Dougie MacLean - The Essential Dougie MacLean CD01
DYEAR=2007
DGENRE=New Age
TTITLE0=Ready for the Storm
TTITLE1=Not Look Down
TTITLE2=She Will Find Me
TTITLE3=Broken Wings
TTITLE4=Garden Valley
TTITLE5=Turning Away
TTITLE6=The Gael
TTITLE7=Gloomy Winter
TTITLE8=We ll Be Together Again
TTITLE9=Scythe Song
TTITLE10=Trail of the Survivor
TTITLE11=Solid Ground
TTITLE12=Edmonton Airbus/Craigie Dhu
EXTD=YEAR: 2007
EXTT0=
EXTT1=
EXTT2=
EXTT3=
EXTT4=
EXTT5=
EXTT6=
EXTT7=
EXTT8=
EXTT9=
EXTT10=
EXTT11=
EXTT12=
PLAYORDER=
